# xmcd
#
# Track frame offsets:
# 182
# 11672
# 35010
# 50100
# 89927
# 103950
# 170590
#
# Disc length: 2432 seconds
#
#
# Revision: 0
# Processed by: cddbd v1.4PL0 Copyright (c) Steve Scherf et al.
# Submitted via: FreeRIP 2.00 
#
DISCID=66097e07
DTITLE=Pappo - Pappo´s Blues Vol. 4
DYEAR=1995
DGENRE=Blues
TTITLE0=Fiesta Cervezal
TTITLE1=Gato de la Calle Negra
TTITLE2=Abelardo el Pollo
TTITLE3=Semilla de Sesamo
TTITLE4=Con Elvira es Otra Cosa
TTITLE5=En Invierno
TTITLE6=El Palacio de la Montana
EXTD=Dreyfuss
EXTT0=
EXTT1=
EXTT2=
EXTT3=
EXTT4=
EXTT5=
EXTT6=
PLAYORDER=
